<svg width="14" height="14" viewBox="0 0 14 14" fill="none" xmlns="http://www.w3.org/2000/svg">
<path fill-rule="evenodd" clip-rule="evenodd" d="M13.6663 7.00016C13.6663 10.6821 10.6816 13.6668 6.99967 13.6668C3.31778 13.6668 0.333008 10.6821 0.333008 7.00016C0.333008 3.31826 3.31778 0.333496 6.99967 0.333496C10.6816 0.333496 13.6663 3.31826 13.6663 7.00016ZM6.99967 6.3335C7.36786 6.3335 7.66634 6.63197 7.66634 7.00016V10.3341C7.66634 10.7023 7.36786 11.0008 6.99967 11.0008C6.63148 11.0008 6.33301 10.7023 6.33301 10.3341V7.00016C6.33301 6.63197 6.63148 6.3335 6.99967 6.3335ZM6.99967 5.00016C7.36786 5.00016 7.66634 4.70169 7.66634 4.3335C7.66634 3.96531 7.36786 3.66683 6.99967 3.66683C6.63148 3.66683 6.33301 3.96531 6.33301 4.3335C6.33301 4.70169 6.63148 5.00016 6.99967 5.00016Z" fill="#9A9FA5"/>
</svg>
