<svg width="25" height="24" viewBox="0 0 25 24" fill="none" xmlns="http://www.w3.org/2000/svg">
<path fill-rule="evenodd" clip-rule="evenodd" d="M2.5 7C2.5 5.34315 3.84315 4 5.5 4H19.5C21.1569 4 22.5 5.34315 22.5 7V17C22.5 18.6569 21.1569 20 19.5 20H5.5C3.84315 20 2.5 18.6569 2.5 17V7ZM5.5 6H19.5C20.0523 6 20.5 6.44771 20.5 7V8H4.5V7C4.5 6.44772 4.94772 6 5.5 6ZM4.5 10V17C4.5 17.5523 4.94772 18 5.5 18H19.5C20.0523 18 20.5 17.5523 20.5 17V10H4.5Z" fill="#111315"/>
<path fill-rule="evenodd" clip-rule="evenodd" d="M6.5 15C6.5 14.4477 6.94772 14 7.5 14H13.5C14.0523 14 14.5 14.4477 14.5 15C14.5 15.5523 14.0523 16 13.5 16H7.5C6.94772 16 6.5 15.5523 6.5 15Z" fill="#111315"/>
</svg>
