<svg width="20" height="20" viewBox="0 0 20 20" fill="none" xmlns="http://www.w3.org/2000/svg">
<path d="M13.75 5.28685H7.44375L8.38375 4.34685C8.87187 3.85935 8.87187 3.06748 8.38375 2.57935C7.89562 2.09123 7.10438 2.09123 6.61563 2.57935L3.54187 5.6531C3.3075 5.88748 3.17562 6.2056 3.17562 6.53685C3.17562 6.8681 3.30687 7.18623 3.54187 7.4206L6.61625 10.495C6.86 10.7394 7.18 10.8612 7.5 10.8612C7.82 10.8612 8.14 10.7394 8.38375 10.495C8.87187 10.0069 8.87187 9.2156 8.38375 8.72748L7.44313 7.78685H13.75C15.8181 7.78685 17.5 9.46873 17.5 11.5369C17.5 13.605 15.8181 15.2869 13.75 15.2869H1.25C0.56 15.2869 0 15.8469 0 16.5369C0 17.2269 0.56 17.7869 1.25 17.7869H13.75C17.1962 17.7869 20 14.9831 20 11.5369C20 8.0906 17.1962 5.28685 13.75 5.28685Z" fill="black"/>
</svg>
