<svg width="20" height="20" viewBox="0 0 20 20" fill="none" xmlns="http://www.w3.org/2000/svg">
<g clip-path="url(#clip0_1284_27598)">
<path d="M15.3125 13.75H17.2094C16.3702 15.3646 15.0133 16.6507 13.3561 17.4024C11.699 18.154 9.83748 18.3276 8.06992 17.8954C6.30235 17.4631 4.73105 16.45 3.60779 15.0184C2.48453 13.5869 1.87434 11.8197 1.875 10H0.625C0.626831 12.0641 1.3098 14.0699 2.56794 15.7062C3.82609 17.3425 5.58908 18.5178 7.5834 19.0499C9.57773 19.5819 11.6919 19.4409 13.5979 18.6488C15.5039 17.8566 17.0953 16.4576 18.125 14.6687V16.5625H19.375V12.5H15.3125V13.75Z" fill="black"/>
<path d="M4.6875 6.24999H2.79063C3.62981 4.6354 4.98669 3.34924 6.64385 2.59761C8.30101 1.84597 10.1625 1.67238 11.9301 2.10463C13.6976 2.53689 15.269 3.54997 16.3922 4.98155C17.5155 6.41313 18.1257 8.18034 18.125 9.99999H19.375C19.3732 7.93591 18.6902 5.93013 17.4321 4.29383C16.1739 2.65753 14.4109 1.48218 12.4166 0.95012C10.4223 0.418063 8.3081 0.559044 6.40208 1.35119C4.49606 2.14334 2.90474 3.54237 1.875 5.33124V3.43749H0.625V7.49999H4.6875V6.24999Z" fill="black"/>
<path d="M12.3721 6.74695L10.0002 9.1157L7.62832 6.74695L6.74707 7.6282L9.11582 10.0001L6.74707 12.3719L7.62832 13.2532L10.0002 10.8844L12.3721 13.2532L13.2533 12.3719L10.8846 10.0001L13.2533 7.6282L12.3721 6.74695Z" fill="black"/>
</g>
<defs>
<clipPath id="clip0_1284_27598">
<rect width="20" height="20" fill="white"/>
</clipPath>
</defs>
</svg>
