<svg width="20" height="20" viewBox="0 0 20 20" fill="none" xmlns="http://www.w3.org/2000/svg">
<g clip-path="url(#clip0_1365_717)">
<path d="M1.35701 0.138764C1.51723 0.0463261 1.69588 0 1.87475 0C2.05373 0 2.23201 0.0463261 2.39243 0.138764L13.1367 9.10372C13.4561 9.28843 13.6541 9.63041 13.6541 10.0002C13.6541 10.3699 13.4566 10.7118 13.1367 10.8963L2.39243 19.8616C2.07239 20.0461 1.67754 20.0461 1.35728 19.8616C1.03702 19.6765 0.8396 19.3344 0.8396 18.9649V1.0351C0.839653 0.665562 1.03681 0.323639 1.35701 0.138764ZM14.9169 0.42487V19.5755C14.9169 19.8041 15.1024 19.9895 15.331 19.9895H18.7463C18.9751 19.9895 19.1606 19.8041 19.1606 19.5755V0.42487C19.1606 0.195974 18.9751 0.0105628 18.7463 0.0105628H15.331C15.1024 0.0105628 14.9169 0.195974 14.9169 0.42487Z" fill="black"/>
</g>
<defs>
<clipPath id="clip0_1365_717">
<rect width="20" height="20" fill="white"/>
</clipPath>
</defs>
</svg>
