<svg width="31" height="27" viewBox="0 0 31 27" fill="none" xmlns="http://www.w3.org/2000/svg">
<path d="M0.62207 15.4307C0.62207 13.3896 1.0127 11.4707 1.79395 9.67383C2.5752 7.86719 3.64941 6.27539 5.0166 4.89844C6.39355 3.52148 7.98047 2.44238 9.77734 1.66113C11.584 0.879883 13.5078 0.489258 15.5488 0.489258C17.5898 0.489258 19.5088 0.879883 21.3057 1.66113C23.1123 2.44238 24.6992 3.52148 26.0664 4.89844C27.4434 6.27539 28.5225 7.86719 29.3037 9.67383C30.085 11.4707 30.4756 13.3896 30.4756 15.4307C30.4756 17.3545 30.124 19.1758 29.4209 20.8945C28.7275 22.6133 27.7705 24.1318 26.5498 25.4502C26.335 25.6943 26.0762 25.8652 25.7734 25.9629C25.4707 26.0703 25.1582 26.0898 24.8359 26.0215C24.5137 25.9531 24.2061 25.7725 23.9131 25.4795L21.8477 23.4287C21.6133 23.2041 21.4961 22.9307 21.4961 22.6084C21.5059 22.2764 21.623 21.9932 21.8477 21.7588C22.0723 21.5342 22.3506 21.4219 22.6826 21.4219C23.0146 21.4219 23.293 21.5342 23.5176 21.7588L25.1289 23.3701C26.0176 22.2959 26.7109 21.085 27.209 19.7373C27.7168 18.3896 27.9707 16.9541 27.9707 15.4307C27.9707 13.7119 27.6484 12.1006 27.0039 10.5967C26.3691 9.08301 25.4854 7.75977 24.3525 6.62695C23.2197 5.48438 21.9014 4.59082 20.3975 3.94629C18.8936 3.30176 17.2773 2.97949 15.5488 2.97949C13.8203 2.97949 12.2041 3.30176 10.7002 3.94629C9.19629 4.59082 7.87793 5.48438 6.74512 6.62695C5.6123 7.75977 4.72363 9.08301 4.0791 10.5967C3.44434 12.1006 3.12695 13.7119 3.12695 15.4307C3.12695 16.9541 3.37598 18.3896 3.87402 19.7373C4.38184 21.085 5.08008 22.2959 5.96875 23.3701L7.58008 21.7588C7.80469 21.5342 8.08301 21.4219 8.41504 21.4219C8.74707 21.4219 9.02539 21.5342 9.25 21.7588C9.47461 21.9932 9.58691 22.2764 9.58691 22.6084C9.59668 22.9307 9.48438 23.2041 9.25 23.4287L7.18457 25.4795C6.8916 25.7725 6.58398 25.9531 6.26172 26.0215C5.93945 26.0898 5.62695 26.0703 5.32422 25.9629C5.02148 25.8652 4.7627 25.6943 4.54785 25.4502C3.32715 24.1318 2.36523 22.6133 1.66211 20.8945C0.96875 19.1758 0.62207 17.3545 0.62207 15.4307ZM5.45605 14.2588C5.77832 14.2588 6.05176 14.376 6.27637 14.6104C6.51074 14.835 6.62793 15.1084 6.62793 15.4307C6.62793 15.7529 6.51074 16.0312 6.27637 16.2656C6.05176 16.5 5.77832 16.6172 5.45605 16.6172H1.86719V14.2588H5.45605ZM14.377 5.30859V1.73438H16.7354V5.30859C16.7354 5.63086 16.6182 5.90918 16.3838 6.14355C16.1494 6.37793 15.8711 6.49512 15.5488 6.49512C15.2266 6.49512 14.9482 6.37793 14.7139 6.14355C14.4893 5.90918 14.377 5.63086 14.377 5.30859ZM21.8916 7.44727L24.4258 4.91309L26.0811 6.58301L23.5615 9.11719C23.3369 9.3418 23.0586 9.4541 22.7266 9.4541C22.3945 9.4541 22.1162 9.3418 21.8916 9.11719C21.667 8.88281 21.5498 8.60449 21.54 8.28223C21.54 7.9502 21.6572 7.67187 21.8916 7.44727ZM25.6855 14.2588H29.2744V16.6172H25.6855C25.3633 16.6172 25.085 16.5 24.8506 16.2656C24.626 16.0312 24.5137 15.7529 24.5137 15.4307C24.5137 15.1084 24.626 14.835 24.8506 14.6104C25.085 14.376 25.3633 14.2588 25.6855 14.2588ZM17.4092 17.3057C16.9307 17.7842 16.3789 18.0234 15.7539 18.0234C15.1387 18.0234 14.5918 17.7842 14.1133 17.3057C14.0254 17.2178 13.918 17.0908 13.791 16.9248C13.6738 16.7588 13.5762 16.6172 13.498 16.5L8.56152 9.39551C8.43457 9.21973 8.38086 9.05371 8.40039 8.89746C8.42969 8.73145 8.49316 8.58984 8.59082 8.47266C8.70801 8.375 8.84473 8.31641 9.00098 8.29688C9.16699 8.27734 9.33789 8.32617 9.51367 8.44336L16.6182 13.3799C16.7354 13.458 16.8721 13.5605 17.0283 13.6875C17.1943 13.8047 17.3213 13.9072 17.4092 13.9951C17.8877 14.4736 18.127 15.0254 18.127 15.6504C18.127 16.2754 17.8877 16.8271 17.4092 17.3057Z" fill="#83BF6E"/>
</svg>
