<svg width="31" height="31" viewBox="0 0 31 31" fill="none" xmlns="http://www.w3.org/2000/svg">
<path d="M15.5635 30.3652C13.5225 30.3652 11.5986 29.9746 9.79199 29.1934C7.99512 28.4121 6.4082 27.333 5.03125 25.9561C3.6543 24.5791 2.5752 22.9922 1.79395 21.1953C1.0127 19.3887 0.62207 17.4648 0.62207 15.4238C0.62207 13.3828 1.0127 11.4639 1.79395 9.66699C2.5752 7.86035 3.64941 6.26855 5.0166 4.8916C6.39355 3.51465 7.98047 2.43555 9.77734 1.6543C11.584 0.873047 13.5078 0.482422 15.5488 0.482422C17.5898 0.482422 19.5137 0.873047 21.3203 1.6543C23.127 2.43555 24.7188 3.51465 26.0957 4.8916C27.4727 6.26855 28.5518 7.86035 29.333 9.66699C30.1143 11.4639 30.5049 13.3828 30.5049 15.4238C30.5049 17.4648 30.1143 19.3887 29.333 21.1953C28.5518 22.9922 27.4727 24.5791 26.0957 25.9561C24.7188 27.333 23.127 28.4121 21.3203 29.1934C19.5234 29.9746 17.6045 30.3652 15.5635 30.3652ZM15.5635 27.875C17.292 27.875 18.9082 27.5527 20.4121 26.9082C21.916 26.2637 23.2393 25.375 24.3818 24.2422C25.5244 23.0996 26.4131 21.7764 27.0479 20.2725C27.6924 18.7686 28.0146 17.1523 28.0146 15.4238C28.0146 13.6953 27.6924 12.0791 27.0479 10.5752C26.4033 9.07129 25.5098 7.74805 24.3672 6.60547C23.2344 5.46289 21.9111 4.57422 20.3975 3.93945C18.8936 3.29492 17.2773 2.97266 15.5488 2.97266C13.8203 2.97266 12.2041 3.29492 10.7002 3.93945C9.19629 4.57422 7.87793 5.46289 6.74512 6.60547C5.6123 7.74805 4.72363 9.07129 4.0791 10.5752C3.44434 12.0791 3.12695 13.6953 3.12695 15.4238C3.12695 17.1523 3.44434 18.7686 4.0791 20.2725C4.72363 21.7764 5.6123 23.0996 6.74512 24.2422C7.8877 25.375 9.21094 26.2637 10.7148 26.9082C12.2188 27.5527 13.835 27.875 15.5635 27.875ZM19.6357 22.3525H9.42578V8.65625C9.42578 7.41602 10.0459 6.7959 11.2861 6.7959H17.7754C19.0156 6.7959 19.6357 7.41602 19.6357 8.65625V22.3525ZM12.1211 14.9111H16.9404C17.4775 14.9111 17.7461 14.6621 17.7461 14.1641V9.44727C17.7461 8.96875 17.4775 8.72949 16.9404 8.72949H12.1211C11.584 8.72949 11.3154 8.96875 11.3154 9.44727V14.1641C11.3154 14.6621 11.584 14.9111 12.1211 14.9111ZM8.50293 22.8213C8.50293 22.6553 8.56641 22.5137 8.69336 22.3965C8.82031 22.2793 8.9668 22.2207 9.13281 22.2207H19.8994C20.085 22.2207 20.2412 22.2793 20.3682 22.3965C20.4951 22.5137 20.5586 22.6553 20.5586 22.8213C20.5586 22.9971 20.4951 23.1484 20.3682 23.2754C20.2412 23.4023 20.085 23.4658 19.8994 23.4658H9.13281C8.9668 23.4658 8.82031 23.4023 8.69336 23.2754C8.56641 23.1484 8.50293 22.9971 8.50293 22.8213ZM17.7754 20.2871V19.1592H21.7451C22.2529 19.1592 22.5068 18.915 22.5068 18.4268V10.7656C22.5068 10.5215 22.4385 10.292 22.3018 10.0771L21.2617 8.39258C21.125 8.17773 21.1152 7.9873 21.2324 7.82129C21.3496 7.64551 21.5107 7.54297 21.7158 7.51367C21.9209 7.48438 22.0869 7.57715 22.2139 7.79199L23.2539 9.47656C23.3711 9.66211 23.4639 9.8623 23.5322 10.0771C23.6006 10.2822 23.6348 10.5117 23.6348 10.7656V18.4268C23.6348 19.667 23.0098 20.2871 21.7598 20.2871H17.7754ZM21.3057 13.0654C20.8955 12.5869 20.8711 12.1035 21.2324 11.6152L22.6094 9.68164V14.5742L21.3057 13.0654Z" fill="#83BF6E"/>
</svg>
