<svg width="34" height="33" viewBox="0 0 34 33" fill="none" xmlns="http://www.w3.org/2000/svg">
<path d="M17.1162 30.7646C16.9209 30.7646 16.7305 30.7549 16.5449 30.7354C16.3594 30.7256 16.1689 30.7109 15.9736 30.6914L15.124 32.3027C15.0361 32.4688 14.9141 32.5908 14.7578 32.6689C14.6113 32.7471 14.4404 32.7715 14.2451 32.7422C14.0596 32.7129 13.9033 32.6299 13.7764 32.4932C13.6592 32.3662 13.5908 32.2051 13.5713 32.0098L13.3076 30.2373C12.9463 30.1396 12.585 30.0225 12.2236 29.8857C11.8721 29.7588 11.5205 29.6172 11.1689 29.4609L9.85059 30.6475C9.71387 30.7842 9.55762 30.8623 9.38184 30.8818C9.21582 30.9014 9.04004 30.8623 8.85449 30.7646C8.68848 30.6768 8.57129 30.5498 8.50293 30.3838C8.44434 30.2275 8.43457 30.0518 8.47363 29.8564L8.83984 28.0986C8.53711 27.8936 8.23438 27.6689 7.93164 27.4248C7.63867 27.1807 7.35547 26.9219 7.08203 26.6484L5.45605 27.3369C5.27051 27.415 5.09473 27.4297 4.92871 27.3809C4.7627 27.3418 4.61133 27.2393 4.47461 27.0732C4.34766 26.9365 4.2793 26.7852 4.26953 26.6191C4.25977 26.4434 4.30371 26.2725 4.40137 26.1064L5.35352 24.583C5.13867 24.2803 4.93848 23.9629 4.75293 23.6309C4.56738 23.2988 4.3916 22.957 4.22559 22.6055L2.43848 22.6934C2.24316 22.7031 2.07227 22.6592 1.92578 22.5615C1.7793 22.4639 1.67188 22.3223 1.60352 22.1367C1.55469 21.9512 1.55469 21.7754 1.60352 21.6094C1.65234 21.4434 1.75 21.3018 1.89648 21.1846L3.30273 20.0713C3.20508 19.7197 3.12207 19.3584 3.05371 18.9873C2.98535 18.6064 2.94141 18.2207 2.92188 17.8301L1.20801 17.2881C0.817383 17.1514 0.62207 16.8828 0.62207 16.4824C0.62207 16.082 0.817383 15.8184 1.20801 15.6914L2.92188 15.1494C2.94141 14.7588 2.98535 14.3779 3.05371 14.0068C3.12207 13.6357 3.20508 13.2695 3.30273 12.9082L1.89648 11.7803C1.75 11.6631 1.64746 11.5264 1.58887 11.3701C1.54004 11.2139 1.54492 11.043 1.60352 10.8574C1.67188 10.6719 1.7793 10.5303 1.92578 10.4326C2.07227 10.335 2.24316 10.291 2.43848 10.3008L4.22559 10.374C4.3916 10.0225 4.56738 9.68555 4.75293 9.36328C4.93848 9.03125 5.13867 8.70898 5.35352 8.39648L4.40137 6.8584C4.30371 6.71191 4.25977 6.55566 4.26953 6.38965C4.2793 6.21387 4.34766 6.05762 4.47461 5.9209C4.61133 5.75488 4.7627 5.65234 4.92871 5.61328C5.09473 5.57422 5.27051 5.58887 5.45605 5.65723L7.08203 6.31641C7.35547 6.0625 7.63867 5.81348 7.93164 5.56934C8.23438 5.31543 8.53711 5.08594 8.83984 4.88086L8.47363 3.1377C8.4248 2.93262 8.43457 2.75195 8.50293 2.5957C8.57129 2.42969 8.68848 2.30273 8.85449 2.21484C9.03027 2.11719 9.20605 2.07813 9.38184 2.09766C9.55762 2.11719 9.71387 2.2002 9.85059 2.34668L11.1689 3.50391C11.5205 3.34766 11.8721 3.20605 12.2236 3.0791C12.585 2.95215 12.9463 2.83496 13.3076 2.72754L13.5713 0.969727C13.5908 0.78418 13.6592 0.62793 13.7764 0.500977C13.9033 0.364258 14.0596 0.28125 14.2451 0.251953C14.4404 0.222656 14.6162 0.24707 14.7725 0.325195C14.9287 0.40332 15.0459 0.520508 15.124 0.676758L15.9736 2.28809C16.1689 2.26855 16.3594 2.25391 16.5449 2.24414C16.7305 2.23437 16.9209 2.22949 17.1162 2.22949C17.3115 2.22949 17.4971 2.23437 17.6729 2.24414C17.8584 2.25391 18.0537 2.26855 18.2588 2.28809L19.0938 0.676758C19.1719 0.520508 19.2891 0.40332 19.4453 0.325195C19.6016 0.24707 19.7773 0.222656 19.9727 0.251953C20.1582 0.28125 20.3096 0.364258 20.4268 0.500977C20.5537 0.62793 20.6318 0.78418 20.6611 0.969727L20.9102 2.74219C21.2715 2.84961 21.6328 2.9668 21.9941 3.09375C22.3555 3.21094 22.707 3.34766 23.0488 3.50391L24.3672 2.34668C24.5137 2.2002 24.6699 2.11719 24.8359 2.09766C25.0117 2.07813 25.1875 2.11719 25.3633 2.21484C25.5293 2.30273 25.6465 2.42969 25.7148 2.5957C25.7832 2.75195 25.793 2.93262 25.7441 3.1377L25.3779 4.88086C25.6807 5.08594 25.9785 5.31543 26.2715 5.56934C26.5742 5.81348 26.8623 6.0625 27.1357 6.31641L28.7617 5.65723C28.9473 5.58887 29.123 5.57422 29.2891 5.61328C29.4551 5.65234 29.6113 5.75488 29.7578 5.9209C29.875 6.05762 29.9385 6.21387 29.9482 6.38965C29.958 6.55566 29.9141 6.7168 29.8164 6.87305L28.8643 8.39648C29.0889 8.70898 29.2891 9.03125 29.4648 9.36328C29.6504 9.68555 29.8262 10.0225 29.9922 10.374L31.7939 10.3008C31.9795 10.291 32.1455 10.335 32.292 10.4326C32.4482 10.5303 32.5557 10.6719 32.6143 10.8574C32.6729 11.043 32.6729 11.2188 32.6143 11.3848C32.5654 11.541 32.4678 11.6729 32.3213 11.7803L30.915 12.9082C31.0127 13.2695 31.0957 13.6357 31.1641 14.0068C31.2422 14.3779 31.2959 14.7588 31.3252 15.1494L33.0098 15.6914C33.1953 15.75 33.3418 15.8477 33.4492 15.9844C33.5566 16.1211 33.6104 16.2871 33.6104 16.4824C33.6104 16.8828 33.4102 17.1514 33.0098 17.2881L31.3252 17.8154C31.2959 18.2158 31.2422 18.6064 31.1641 18.9873C31.0957 19.3584 31.0127 19.7197 30.915 20.0713L32.3213 21.1846C32.4678 21.3018 32.5654 21.4482 32.6143 21.624C32.6729 21.79 32.6729 21.9609 32.6143 22.1367C32.5557 22.3223 32.4482 22.4639 32.292 22.5615C32.1455 22.6592 31.9795 22.7031 31.7939 22.6934L29.9922 22.6055C29.8262 22.957 29.6504 23.2988 29.4648 23.6309C29.2891 23.9629 29.0889 24.2803 28.8643 24.583L29.8164 26.1064C29.9238 26.2725 29.9678 26.4434 29.9482 26.6191C29.9385 26.7852 29.875 26.9365 29.7578 27.0732C29.6113 27.2393 29.4551 27.3418 29.2891 27.3809C29.123 27.4297 28.9473 27.415 28.7617 27.3369L27.1357 26.6484C26.8623 26.9219 26.5742 27.1807 26.2715 27.4248C25.9785 27.6689 25.6807 27.8936 25.3779 28.0986L25.7441 29.8564C25.8223 30.2666 25.6953 30.5693 25.3633 30.7646C25.1875 30.8623 25.0117 30.9014 24.8359 30.8818C24.6699 30.8623 24.5137 30.7842 24.3672 30.6475L23.0488 29.4609C22.707 29.6172 22.3555 29.7588 21.9941 29.8857C21.6328 30.0225 21.2715 30.1396 20.9102 30.2373L20.6611 32.0098C20.6318 32.2051 20.5537 32.3662 20.4268 32.4932C20.3096 32.6299 20.1631 32.7129 19.9873 32.7422C19.7822 32.7715 19.6016 32.7471 19.4453 32.6689C19.2988 32.5908 19.1816 32.4688 19.0938 32.3027L18.2588 30.6914C18.0537 30.7109 17.8584 30.7256 17.6729 30.7354C17.4971 30.7549 17.3115 30.7646 17.1162 30.7646ZM17.1162 28.5381C18.7959 28.5381 20.3535 28.2256 21.7891 27.6006C23.2344 26.9854 24.4941 26.1309 25.5684 25.0371C26.6523 23.9336 27.4971 22.6543 28.1025 21.1992C28.708 19.7344 29.0107 18.167 29.0107 16.4971C29.0107 14.8271 28.708 13.2646 28.1025 11.8096C27.4971 10.3447 26.6523 9.06543 25.5684 7.97168C24.4941 6.86816 23.2344 6.00879 21.7891 5.39355C20.3535 4.76855 18.7959 4.45605 17.1162 4.45605C15.4365 4.45605 13.874 4.76855 12.4287 5.39355C10.9932 6.00879 9.7334 6.86816 8.64941 7.97168C7.5752 9.06543 6.73535 10.3447 6.12988 11.8096C5.52441 13.2646 5.22168 14.8271 5.22168 16.4971C5.22168 18.167 5.52441 19.7344 6.12988 21.1992C6.73535 22.6543 7.5752 23.9336 8.64941 25.0371C9.7334 26.1309 10.9932 26.9854 12.4287 27.6006C13.874 28.2256 15.4365 28.5381 17.1162 28.5381ZM17.1162 23.6016C15.6123 23.6016 14.3965 23.1572 13.4688 22.2686C12.541 21.3701 12.0771 20.1934 12.0771 18.7383C12.0771 18.0059 12.1943 17.3271 12.4287 16.7021C12.6729 16.0674 12.9072 15.501 13.1318 15.0029C13.5322 14.1436 14.0254 13.2158 14.6113 12.2197C15.207 11.2139 15.793 10.2764 16.3691 9.40723C16.5742 9.08496 16.8232 8.92383 17.1162 8.92383C17.4092 8.92383 17.6582 9.08496 17.8633 9.40723C18.4297 10.2764 19.0107 11.2139 19.6064 12.2197C20.2021 13.2158 20.6953 14.1436 21.0859 15.0029C21.3105 15.501 21.54 16.0674 21.7744 16.7021C22.0186 17.3271 22.1406 18.0059 22.1406 18.7383C22.1406 20.1934 21.6768 21.3701 20.749 22.2686C19.8311 23.1572 18.6201 23.6016 17.1162 23.6016Z" fill="#83BF6E"/>
</svg>
