<svg width="20" height="20" viewBox="0 0 20 20" fill="none" xmlns="http://www.w3.org/2000/svg">
<path fill-rule="evenodd" clip-rule="evenodd" d="M13.927 11.5047C14.6175 10.6435 15.0293 9.55331 15.0293 8.3624C15.0293 5.58497 12.7778 3.33341 10.0003 3.33341C7.22291 3.33341 4.97135 5.58497 4.97135 8.3624C4.97135 9.5532 5.38315 10.6433 6.07346 11.5045V11.5045L6.07843 11.5107C6.22458 11.6928 6.35989 11.8845 6.50046 12.0709C6.74462 12.3945 7.08891 12.8491 7.48894 13.3719C8.23439 14.3462 9.1656 15.5472 10.0009 16.5783C10.8389 15.545 11.7722 14.3421 12.5191 13.3666C12.9199 12.8432 13.2647 12.3882 13.5092 12.0642C13.6491 11.8789 13.7818 11.6859 13.927 11.5047ZM15.2299 12.5491C15.2299 12.5491 15.2284 12.551 15.2274 12.5524C15.1848 12.6094 14.7929 13.133 14.2251 13.8787C13.3826 14.985 12.1529 16.5802 11.1016 17.8662C10.5265 18.5696 9.47444 18.5694 8.89966 17.8656C7.1027 15.6655 4.77866 12.5539 4.77866 12.5539L4.77324 12.5472C3.85433 11.4009 3.30469 9.94583 3.30469 8.3624C3.30469 4.66449 6.30243 1.66675 10.0003 1.66675C13.6982 1.66675 16.696 4.66449 16.696 8.3624C16.696 9.34761 16.4832 10.2831 16.1011 11.1255C15.8699 11.6351 15.5768 12.1106 15.2313 12.5423L15.2289 12.5454L15.2274 12.5472H15.2313L15.2299 12.5491Z" fill="#6F767E"/>
<path fill-rule="evenodd" clip-rule="evenodd" d="M10 9.16659C10.4602 9.16659 10.8333 8.79349 10.8333 8.33325C10.8333 7.87301 10.4602 7.49992 10 7.49992C9.53976 7.49992 9.16667 7.87301 9.16667 8.33325C9.16667 8.79349 9.53976 9.16659 10 9.16659ZM12.5 8.33325C12.5 9.71396 11.3807 10.8333 10 10.8333C8.61929 10.8333 7.5 9.71396 7.5 8.33325C7.5 6.95254 8.61929 5.83325 10 5.83325C11.3807 5.83325 12.5 6.95254 12.5 8.33325Z" fill="#6F767E"/>
</svg>
