<svg width="138" height="36" viewBox="0 0 138 36" fill="none" xmlns="http://www.w3.org/2000/svg">
<path d="M12 23.3143V12.6857H23.9098V15.2429H15.8465V16.4H20.3625C23.4967 16.4 24.6791 17.8857 24.6791 19.7714V19.9286C24.6791 21.8143 23.4967 23.3143 20.3625 23.3143H12ZM15.8465 20.7571H19.4365C20.2343 20.7571 20.6617 20.4286 20.6617 19.8714V19.8C20.6617 19.2857 20.2486 18.9571 19.4365 18.9571H15.8465V20.7571Z" fill="#33383F"/>
<path d="M26.2985 12.6857H36.8835V15.2571H30.1308V16.6143H36.6698V19.2571H30.1308V20.7143H36.9832V23.3143H26.2985V12.6857Z" fill="#33383F"/>
<path d="M38.9832 23.3143V12.6857H42.8297V16.4286H48.2006V12.6857H52.0328V23.3143H48.2006V19.2857H42.8297V23.3143H38.9832Z" fill="#33383F"/>
<path d="M67.3188 20.1143V20.2571C67.3188 22.5286 64.8969 23.5 60.908 23.5H60.5661C56.6768 23.5 53.7421 22.4571 53.7421 19.5286V19.4429H57.788C57.788 20.6 58.7568 21.0286 60.851 21.0286C62.4893 21.0286 63.3156 20.6857 63.3156 19.9857C63.3156 19.3 62.6318 19.0714 61.4208 19.0714H58.771V16.6857H61.1929C62.2756 16.6857 62.874 16.5286 62.874 15.9143C62.874 15.3286 62.3468 14.9857 60.6231 14.9857C59.056 14.9857 57.9163 15.3143 57.8735 16.3857H53.8276V16.2714C53.8276 13.6 56.7053 12.5571 60.4663 12.5571H60.9222C64.726 12.5571 66.8914 13.5429 66.8914 15.3286V15.4286C66.8914 16.8 65.9654 17.3571 64.8969 17.6571C66.0366 17.8857 67.3188 18.6286 67.3188 20.1143Z" fill="#33383F"/>
<path d="M75.3393 12.5H75.9804C81.6361 12.5 82.8043 15.5571 82.8043 17.7571V18.1857C82.8043 20.3571 81.6504 23.5 75.9804 23.5H75.3393C69.6978 23.5 68.5153 20.3571 68.5153 18.1857V17.7571C68.5153 15.5429 69.712 12.5 75.3393 12.5ZM78.7869 18.0286V17.8714C78.7869 16.8429 78.331 15.3857 75.6527 15.3857C72.9744 15.3857 72.5328 16.8429 72.5328 17.8714V18.0286C72.5328 19.0571 73.0029 20.5714 75.667 20.5714C78.331 20.5714 78.7869 19.0571 78.7869 18.0286Z" fill="#33383F"/>
<path d="M84.5918 23.3143V12.6857H96.5016V15.2429H88.4382V16.4H92.9543C96.0885 16.4 97.2709 17.8857 97.2709 19.7714V19.9286C97.2709 21.8143 96.0885 23.3143 92.9543 23.3143H84.5918ZM88.4382 20.7571H92.0283C92.8261 20.7571 93.2535 20.4286 93.2535 19.8714V19.8C93.2535 19.2857 92.8403 18.9571 92.0283 18.9571H88.4382V20.7571Z" fill="#33383F"/>
<path d="M105.244 12.5H105.885C111.541 12.5 112.709 15.5571 112.709 17.7571V18.1857C112.709 20.3571 111.555 23.5 105.885 23.5H105.244C99.6026 23.5 98.4202 20.3571 98.4202 18.1857V17.7571C98.4202 15.5429 99.6169 12.5 105.244 12.5ZM108.692 18.0286V17.8714C108.692 16.8429 108.236 15.3857 105.558 15.3857C102.879 15.3857 102.438 16.8429 102.438 17.8714V18.0286C102.438 19.0571 102.908 20.5714 105.572 20.5714C108.236 20.5714 108.692 19.0571 108.692 18.0286Z" fill="#33383F"/>
<path d="M117.922 23.3143V15.6143H113.677V12.6857H126V15.6143H121.755V23.3143H117.922Z" fill="#33383F"/>
</svg>
