<svg width="36" height="36" viewBox="0 0 36 36" fill="none" xmlns="http://www.w3.org/2000/svg">
<path d="M29.5203 0C28.4062 0.0844815 27.275 0.625788 26.3703 1.53162L24.1203 3.80792L25.65 5.31607L27.9 3.06323C28.4234 2.5407 29.0531 2.21842 29.6328 2.1621H36V0H29.5203ZM17.5047 3.28851C16.7172 3.28851 15.9109 3.57951 15.3219 4.16775L12.6 6.91652C12.2203 7.29668 12.0156 7.8067 12.0156 8.33549C12.0156 8.86428 12.2203 9.3524 12.6 9.73256L22.2531 19.3963C22.6328 19.7765 23.1359 19.983 23.6703 19.983C24.1875 19.983 24.6875 19.7905 25.1328 19.3963L25.7844 18.7439C26.2484 18.2793 26.5469 17.6488 26.6406 16.8963V16.7836L25.9875 12.0308C26.0578 11.1156 25.7688 10.2989 25.1328 9.66529L24.7953 9.32736L25.1547 8.22285L25.1781 8.13211C25.3063 7.49068 25.1328 6.84925 24.7047 6.42058L22.7469 4.4603C22.3937 4.1083 21.9297 3.92056 21.4656 3.92056C21.2688 3.92056 21.0859 3.95341 20.9469 4.00973L19.8453 4.37113L19.6656 4.16775C19.0766 3.57951 18.2922 3.28851 17.5047 3.28851ZM11.0031 9.95785L3.08281 17.8647C2.45469 18.4936 2.43594 19.5715 3.08281 20.3428L9.49531 26.7415C10.2234 27.4705 11.1797 27.8898 12.1953 27.8898C13.2109 27.8898 14.1891 27.4705 14.9172 26.7415L21.2172 20.4101L11.5875 10.7682C11.3484 10.5289 11.1594 10.2441 11.0031 9.95785ZM13.1406 14.778C13.4797 14.778 13.8266 14.8515 14.1531 14.9595C12.0453 17.2264 12.2313 19.9767 12.2406 20.0956C12.2703 20.4726 12.5891 20.7715 12.9594 20.7715C12.9797 20.7715 13.0078 20.7746 13.0281 20.7715C13.4234 20.737 13.7141 20.3803 13.6797 19.983C13.6766 19.9595 13.5141 17.6253 15.3453 15.7918C15.3734 15.7636 15.3906 15.7339 15.4125 15.7026L17.4156 17.7301C17.8484 18.1635 17.8484 18.8049 17.4156 19.2398L13.5453 23.1369C12.825 23.9301 11.5875 23.9254 10.8672 23.2042L7.92031 20.2536C7.4875 19.8187 7.4875 19.1773 7.92031 18.7439L11.025 15.6353C11.6016 15.058 12.3578 14.778 13.1406 14.778ZM1.59688 20.6588C0.573438 22.1623 0 24.0005 0 25.8857C0 29.5998 2.48906 34.3479 7.96563 36L8.59531 33.9271C3.875 32.505 2.15938 28.3404 2.15938 25.8857C2.15938 24.6326 2.48906 23.4185 3.08281 22.3703L1.97969 21.2674C1.82188 21.0781 1.70938 20.8638 1.59688 20.6588Z" fill="#83BF6E"/>
</svg>
